<?xml version="1.0" encoding="UTF-8" standalone="no"?>
<!-- Created with Inkscape (http://www.inkscape.org/) -->

<svg
   xmlns:dc="http://purl.org/dc/elements/1.1/"
   xmlns:cc="http://creativecommons.org/ns#"
   xmlns:rdf="http://www.w3.org/1999/02/22-rdf-syntax-ns#"
   xmlns:svg="http://www.w3.org/2000/svg"
   xmlns="http://www.w3.org/2000/svg"
   version="1.1"
   width="293.5"
   height="92"
   viewBox="0 0 293.5 92"
   id="Layer_1"
   xml:space="preserve"><metadata
   id="metadata3018"><rdf:RDF><cc:Work
       rdf:about=""><dc:format>image/svg+xml</dc:format><dc:type
         rdf:resource="http://purl.org/dc/dcmitype/StillImage" /><dc:title></dc:title></cc:Work></rdf:RDF></metadata><defs
   id="defs3016" />
<g
   id="g2986"
   style="fill:#ffffff">
	<g
   id="g2988"
   style="fill:#ffffff">
		<path
   d="m 43.459,33.785 c 2.011,1.84 3.017,4.399 3.017,7.677 0,3.278 -0.98,5.873 -2.941,7.783 -1.96,1.91 -4.952,2.865 -8.974,2.865 H 27.352 V 31.025 h 7.451 c 3.759,0 6.646,0.92 8.656,2.76 z m -3.453,12.534 c 1.156,-1.086 1.734,-2.664 1.734,-4.736 0,-2.07 -0.578,-3.664 -1.734,-4.781 -1.157,-1.117 -2.931,-1.674 -5.324,-1.674 h -2.624 v 12.82 h 2.986 c 2.152,-10e-4 3.805,-0.543 4.962,-1.629 z"
   id="path2990"
   style="fill:#ffffff" />
		<path
   d="m 52.359,31.025 h 4.706 V 52.11 H 52.359 V 31.025 z"
   id="path2992"
   style="fill:#ffffff" />
		<path
   d="m 77.757,41.371 h 4.736 v 7.481 c -2.091,2.332 -4.988,3.498 -8.688,3.498 -3.097,0 -5.696,-1.024 -7.797,-3.076 -2.102,-2.051 -3.152,-4.641 -3.152,-7.768 0,-3.127 1.071,-5.735 3.212,-7.828 2.142,-2.09 4.726,-3.137 7.752,-3.137 3.027,0 5.656,0.996 7.888,2.986 l -2.443,3.529 c -0.946,-0.824 -1.815,-1.393 -2.609,-1.704 -0.794,-0.312 -1.654,-0.468 -2.579,-0.468 -1.79,0 -3.298,0.608 -4.524,1.826 -1.227,1.217 -1.84,2.819 -1.84,4.812 0,1.989 0.588,3.585 1.765,4.78 1.176,1.197 2.579,1.795 4.208,1.795 1.629,0 2.986,-0.312 4.072,-0.935 l -10e-4,-5.791 0,0 z"
   id="path2994"
   style="fill:#ffffff" />
		<path
   d="m 88.495,31.025 h 4.706 V 52.11 H 88.495 V 31.025 z"
   id="path2996"
   style="fill:#ffffff" />
		<path
   d="M 109.127,35.097 V 52.11 h -4.706 V 35.097 H 98.448 V 31.026 H 115.1 v 4.071 h -5.973 z"
   id="path2998"
   style="fill:#ffffff" />
		<path
   d="m 133.833,52.11 -1.961,-4.555 h -8.838 l -1.961,4.555 h -5.007 l 9.11,-21.085 h 4.555 l 9.11,21.085 h -5.008 z m -6.365,-14.81 -2.654,6.125 h 5.278 L 127.468,37.3 z"
   id="path3000"
   style="fill:#ffffff" />
		<path
   d="M 143.094,52.11 V 31.025 h 4.706 v 16.894 h 8.988 v 4.191 h -13.694 z"
   id="path3002"
   style="fill:#ffffff" />
		<path
   d="m 187.917,33.785 c 2.011,1.84 3.018,4.399 3.018,7.677 0,3.278 -0.98,5.873 -2.941,7.783 -1.961,1.91 -4.951,2.865 -8.974,2.865 h -7.21 V 31.025 h 7.451 c 3.76,0 6.646,0.92 8.656,2.76 z m -3.453,12.534 c 1.154,-1.086 1.734,-2.664 1.734,-4.736 0,-2.07 -0.58,-3.664 -1.734,-4.781 -1.156,-1.117 -2.934,-1.674 -5.324,-1.674 h -2.625 v 12.82 h 2.986 c 2.152,-10e-4 3.807,-0.543 4.963,-1.629 z"
   id="path3004"
   style="fill:#ffffff" />
		<path
   d="m 212.019,31.025 v 4.192 h -10.497 v 4.344 h 9.441 v 4.012 h -9.441 v 4.374 h 10.829 V 52.11 H 196.816 V 31.025 h 15.203 z"
   id="path3006"
   style="fill:#ffffff" />
		<path
   d="m 228.036,47.947 c 2.312,0 4.203,-0.915 5.67,-2.745 l 3.017,3.107 c -2.394,2.695 -5.212,4.041 -8.46,4.041 -3.248,0 -5.923,-1.023 -8.023,-3.075 -2.102,-2.05 -3.15,-4.64 -3.15,-7.767 0,-3.127 1.068,-5.736 3.212,-7.828 2.144,-2.092 4.761,-3.137 7.856,-3.137 3.459,0 6.354,1.316 8.688,3.951 l -2.925,3.318 c -1.489,-1.85 -3.34,-2.775 -5.553,-2.775 -1.771,0 -3.283,0.579 -4.539,1.735 -1.258,1.155 -1.887,2.714 -1.887,4.675 0,1.961 0.594,3.535 1.78,4.721 1.187,1.187 2.626,1.779 4.314,1.779 z"
   id="path3008"
   style="fill:#ffffff" />
		<path
   d="m 242.243,31.025 h 4.707 v 8.657 l 7.963,-8.657 h 5.822 l -8.388,9.321 c 0.726,1.004 2.062,2.879 4.013,5.625 1.949,2.744 3.407,4.791 4.375,6.139 h -5.49 l -6.186,-8.325 -2.109,2.353 v 5.973 h -4.707 V 31.025 z"
   id="path3010"
   style="fill:#ffffff" />
	</g>
	<polygon
   points="167.628,63.796 258.483,63.796 266.147,71.458 266.147,63.796 266.147,59.419 167.628,59.419 "
   id="polygon3012"
   style="fill:#ffffff" />
</g>
</svg>