<?xml version="1.0" encoding="UTF-8" standalone="no"?>
<!-- Created with Inkscape (http://www.inkscape.org/) -->

<svg
   xmlns:dc="http://purl.org/dc/elements/1.1/"
   xmlns:cc="http://creativecommons.org/ns#"
   xmlns:rdf="http://www.w3.org/1999/02/22-rdf-syntax-ns#"
   xmlns:svg="http://www.w3.org/2000/svg"
   xmlns="http://www.w3.org/2000/svg"
   version="1.1"
   width="157.5"
   height="70"
   viewBox="0 0 157.5 70"
   id="Layer_1"
   xml:space="preserve"><metadata
   id="metadata25"><rdf:RDF><cc:Work
       rdf:about=""><dc:format>image/svg+xml</dc:format><dc:type
         rdf:resource="http://purl.org/dc/dcmitype/StillImage" /><dc:title></dc:title></cc:Work></rdf:RDF></metadata><defs
   id="defs23" />
<path
   d="M 152.495,64.771 H 4.874 V 5.457 H 152.495 V 64.771 z M 7.312,62.334 H 150.058 V 7.895 H 7.312 v 54.439 z"
   id="path3"
   style="fill:#ffffff;fill-opacity:1" />
<g
   id="g5"
   style="fill:#ffffff;fill-opacity:1">
	<path
   d="M 29.567,22.102 H 22.664 V 48.024 H 26.48 V 37.557 h 2.903 c 2.044,0 3.906,-0.691 5.244,-1.948 1.494,-1.401 2.284,-3.444 2.284,-5.907 0,-2.474 -0.792,-4.488 -2.291,-5.824 -1.285,-1.146 -3.079,-1.776 -5.053,-1.776 z M 29.42,33.854 h -2.94 v -8.011 h 2.83 c 2.336,0 3.675,1.447 3.675,3.969 0,2.531 -1.332,4.042 -3.565,4.042 z"
   id="path7"
   style="fill:#ffffff;fill-opacity:1" />
	<path
   d="m 46.676,21.697 c -4.993,0 -7.857,4.885 -7.857,13.403 0,8.469 2.851,13.327 7.821,13.327 4.966,0 7.931,-5.011 7.931,-13.4 -10e-4,-8.471 -2.879,-13.33 -7.895,-13.33 z m 4.005,13.404 c 0,8.276 -2.463,9.513 -3.932,9.513 -3.751,0 -4.042,-7.34 -4.042,-9.586 0,-3.553 0.506,-9.515 3.896,-9.515 1.387,0 2.45,1.005 3.162,2.986 0.757,2.108 0.916,4.754 0.916,6.602 z"
   id="path9"
   style="fill:#ffffff;fill-opacity:1" />
	<rect
   width="3.816"
   height="25.922001"
   x="57.632999"
   y="22.101999"
   id="rect11"
   style="fill:#ffffff;fill-opacity:1" />
	<path
   d="m 75.954,33.521 c 0,1.04 0.026,3.315 0.057,4.577 -0.115,-0.274 -0.254,-0.606 -0.403,-0.967 -0.405,-0.974 -0.863,-2.075 -1.172,-2.736 L 68.889,22.165 68.86,22.102 h -3.777 v 25.922 h 3.743 v -12.96 c 0,-1.04 -0.026,-3.318 -0.057,-4.58 0.114,0.272 0.252,0.602 0.399,0.958 0.406,0.977 0.867,2.084 1.177,2.748 l 6.207,13.771 0.029,0.062 h 3.107 V 22.102 h -3.734 v 11.419 z"
   id="path13"
   style="fill:#ffffff;fill-opacity:1" />
	<polygon
   points="87.241,25.843 87.241,48.023 91.058,48.023 91.058,25.843 95.795,25.843 95.795,22.102 82.504,22.102 82.504,25.843 "
   id="polygon15"
   style="fill:#ffffff;fill-opacity:1" />
	<path
   d="m 112.341,21.697 c -4.617,0 -7.602,3.315 -7.602,8.445 0,4.734 2.733,8.038 6.646,8.038 1.616,0 2.887,-0.469 3.873,-1.431 -0.837,4.508 -3.736,7.593 -7.633,8.084 l -0.095,0.012 v 3.593 l 0.118,-0.011 c 7.438,-0.689 11.704,-6.927 11.704,-17.11 0.002,-6.203 -2.49,-9.62 -7.011,-9.62 z m -0.221,12.855 c -2.267,0 -3.675,-1.718 -3.675,-4.483 0,-2.968 1.373,-4.74 3.675,-4.74 2.176,0 3.527,1.732 3.527,4.52 0,2.989 -1.285,4.703 -3.527,4.703 z"
   id="path17"
   style="fill:#ffffff;fill-opacity:1" />
	<path
   d="m 120.762,22.102 v 3.705 h 9.691 c -4.055,5.188 -5.945,12.219 -5.945,22.109 v 0.107 h 3.815 v -0.107 c 0,-7.236 0.747,-15.503 6.291,-21.963 l 0.026,-0.03 v -3.821 h -13.878 z"
   id="path19"
   style="fill:#ffffff;fill-opacity:1" />
</g>
</svg>